<svg width="64" height="64" viewBox="0 0 64 64" fill="none" xmlns="http://www.w3.org/2000/svg">
  <path d="M32 12C21 12 12 20.5 12 31c0 3.7 1.2 7.2 3.3 10.2L12 52l11.2-3.6C26 49.7 29 50.4 32 50.4c11 0 20-8.5 20-19S43 12 32 12Z" stroke="#1b7c4c" stroke-width="4" fill="none" stroke-linejoin="round"/>
  <path d="M26.5 27.8c1.5 3 4.3 5.6 7.3 7.1 1 .5 2.2.3 3-.5l1.6-1.6c.5-.5 1.3-.6 2-.3l4 1.7c.8.3 1.2 1.2.9 2-1 2.6-3.6 4.2-6.4 4.2-7 0-12.7-5.6-12.7-12.6 0-2.9 1.6-5.4 4.2-6.4.8-.3 1.7.1 2 .9l1.7 4c.3.7.2 1.5-.3 2l-1.6 1.6c-.8.8-1 2-.5 3Z" fill="#1b7c4c"/>
</svg>
